<?xml version="1.0" encoding="UTF-8"?>
<svg width="205px" height="24px" viewBox="0 0 205 24" version="1.1" xmlns="http://www.w3.org/2000/svg" xmlns:xlink="http://www.w3.org/1999/xlink">
    <!-- Generator: Sketch 42 (36781) - http://www.bohemiancoding.com/sketch -->
    <title>logo-white</title>
    <desc>Created with Sketch.</desc>
    <defs></defs>
    <g id="Page-1" stroke="none" stroke-width="1" fill="none" fill-rule="evenodd">
        <g id="logo-white" fill="#FFFFFF">
            <g id="Page-1">
                <g id="logo-white">
                    <g id="Page-1">
                        <path d="M33.218,0.934 L26.146,23 L20.91,23 L16.694,6.986 L12.342,23 L7.106,23 L0.272,0.934 L5.78,0.934 L10.064,17.05 L14.348,0.934 L19.278,0.934 L23.902,17.05 L27.846,0.934 L33.218,0.934 Z M41.174,23 L35.87,23 L35.87,0.934 L41.174,0.934 L41.174,23 Z M62.866,15.248 L62.866,16.71 C62.866,18.0246732 62.6280024,19.1296622 62.152,20.025 C61.6759976,20.9203378 60.973338,21.600331 60.044,22.065 C59.114662,22.529669 58.1003388,22.8583324 57.001,23.051 C55.9016612,23.2436676 54.5926743,23.34 53.074,23.34 C50.9659895,23.34 48.3593489,23.136002 45.254,22.728 L45.254,18.682 C49.0166855,19.2713363 51.6459925,19.566 53.142,19.566 C56.0886814,19.566 57.562,18.8066743 57.562,17.288 L57.562,15.86 C57.562,15.2026634 57.3693353,14.6643354 56.984,14.245 C56.5986647,13.8256646 55.8280058,13.616 54.672,13.616 L52.088,13.616 C47.2373091,13.616 44.812,11.6893526 44.812,7.836 L44.812,6.204 C44.812,4.29999048 45.610992,2.88900459 47.209,1.971 C48.807008,1.05299541 51.3626491,0.594 54.876,0.594 C56.5760085,0.594 58.8766522,0.74133186 61.778,1.036 L61.778,4.98 C58.3326494,4.57199796 55.9753397,4.368 54.706,4.368 C52.9606579,4.368 51.7593366,4.51533186 51.102,4.81 C50.4446634,5.10466814 50.116,5.60332982 50.116,6.306 L50.116,7.87 C50.116,9.02600578 51.0906569,9.604 53.04,9.604 L55.692,9.604 C58.2760129,9.604 60.1176612,10.0799952 61.217,11.032 C62.3163388,11.9840048 62.866,13.389324 62.866,15.248 Z M83.708,23 L66.538,23 L66.538,0.934 L83.368,0.934 L83.368,4.708 L71.842,4.708 L71.842,9.774 L82.246,9.774 L82.246,13.548 L71.842,13.548 L71.842,19.226 L83.708,19.226 L83.708,23 Z" id="WISE"></path>
                        <path d="M110.7,14.67 L110.7,18.07 C110.7,19.9060092 109.963341,21.186663 108.49,21.912 C107.016659,22.637337 104.829348,23 101.928,23 L92.748,23 L92.748,0.934 L101.69,0.934 C104.818016,0.934 106.937328,1.28532982 108.048,1.988 C109.158672,2.69067018 109.714,3.91465794 109.714,5.66 L109.714,8.38 C109.714,9.01466984 109.464669,9.60399728 108.966,10.148 C108.467331,10.6920027 107.90067,11.0546658 107.266,11.236 L107.266,11.406 C108.082004,11.4966671 108.85833,11.8593302 109.595,12.494 C110.33167,13.1286698 110.7,13.8539959 110.7,14.67 Z M104.614,7.7 L104.614,6.612 C104.614,5.88666304 104.444002,5.38800136 104.104,5.116 C103.763998,4.84399864 102.92534,4.708 101.588,4.708 L98.052,4.708 L98.052,9.91 L101.69,9.91 C102.936673,9.91 103.735665,9.75133492 104.087,9.434 C104.438335,9.11666508 104.614,8.53867086 104.614,7.7 Z M105.396,17.356 L105.396,15.588 C105.396,14.7719959 105.186335,14.1940017 104.767,13.854 C104.347665,13.5139983 103.605339,13.344 102.54,13.344 L98.052,13.344 L98.052,19.226 L101.826,19.226 C103.118006,19.226 104.035997,19.0786681 104.58,18.784 C105.124003,18.4893319 105.396,18.0133366 105.396,17.356 Z M134.806,7.292 L134.806,16.948 C134.806,18.1946729 134.477337,19.2599956 133.82,20.144 C133.162663,21.0280044 132.278672,21.6909978 131.168,22.133 C130.057328,22.5750022 128.946672,22.8866658 127.836,23.068 C126.725328,23.2493342 125.546673,23.34 124.3,23.34 C123.121327,23.34 122.016338,23.2663341 120.985,23.119 C119.953662,22.9716659 118.854339,22.694002 117.687,22.286 C116.519661,21.877998 115.590337,21.2206712 114.899,20.314 C114.207663,19.4073288 113.862,18.28534 113.862,16.948 L113.862,7.292 C113.862,6.158661 114.116997,5.16133764 114.627,4.3 C115.137003,3.43866236 115.748996,2.7813356 116.463,2.328 C117.177004,1.8746644 118.043995,1.50633475 119.064,1.223 C120.084005,0.93966525 120.990663,0.76400034 121.784,0.696 C122.577337,0.62799966 123.415996,0.594 124.3,0.594 C125.206671,0.594 126.062329,0.62799966 126.867,0.696 C127.671671,0.76400034 128.583995,0.93966525 129.604,1.223 C130.624005,1.50633475 131.496663,1.8746644 132.222,2.328 C132.947337,2.7813356 133.559331,3.43299575 134.058,4.283 C134.556669,5.13300425 134.806,6.13599422 134.806,7.292 Z M129.502,16.948 L129.502,7.258 C129.502,6.19266134 129.065671,5.44466882 128.193,5.014 C127.320329,4.58333118 126.034008,4.368 124.334,4.368 C122.611325,4.368 121.319338,4.57766457 120.458,4.997 C119.596662,5.41633543 119.166,6.16999456 119.166,7.258 L119.166,16.948 C119.166,17.5146695 119.313332,17.9849981 119.608,18.359 C119.902668,18.7330019 120.327664,18.9993325 120.883,19.158 C121.438336,19.3166675 121.970997,19.4243331 122.481,19.481 C122.991003,19.5376669 123.619996,19.566 124.368,19.566 C125.116004,19.566 125.744997,19.5376669 126.255,19.481 C126.765003,19.4243331 127.291997,19.3166675 127.836,19.158 C128.380003,18.9993325 128.793665,18.7330019 129.077,18.359 C129.360335,17.9849981 129.502,17.5146695 129.502,16.948 Z M159.354,23 L153.982,23 L152.01,17.186 L143.952,17.186 L142.014,23 L136.778,23 L144.938,0.934 L151.398,0.934 L159.354,23 Z M150.854,13.65 L148.066,5.354 L147.93,5.354 L145.142,13.65 L150.854,13.65 Z M181.454,23 L175.334,23 L169.554,14.33 L167.106,14.33 L167.106,23 L161.802,23 L161.802,0.934 L171.73,0.934 C174.631348,0.934 176.75066,1.28532982 178.088,1.988 C179.42534,2.69067018 180.094,3.8919915 180.094,5.592 L180.094,9.468 C180.094,10.80534 179.612338,11.836663 178.649,12.562 C177.685662,13.287337 176.490007,13.7406658 175.062,13.922 L181.454,23 Z M174.892,8.414 L174.892,6.85 C174.892,6.03399592 174.648336,5.47300153 174.161,5.167 C173.673664,4.86099847 172.840673,4.708 171.662,4.708 L167.106,4.708 L167.106,10.828 L171.662,10.828 C172.908673,10.828 173.758664,10.6636683 174.212,10.335 C174.665336,10.0063317 174.892,9.36600476 174.892,8.414 Z M204.37,7.632 L204.37,16.608 C204.37,19.1013458 203.599341,20.7899956 202.058,21.674 C200.516659,22.5580044 197.808019,23 193.932,23 L184.514,23 L184.514,0.934 L193.898,0.934 C197.638019,0.934 200.318325,1.39866202 201.939,2.328 C203.559675,3.25733798 204.37,5.0253203 204.37,7.632 Z M199.066,16.608 L199.066,7.53 C199.066,6.46466134 198.635338,5.72800204 197.774,5.32 C196.912662,4.91199796 195.609342,4.708 193.864,4.708 L189.818,4.708 L189.818,19.226 L193.694,19.226 C195.73401,19.226 197.139329,19.0730015 197.91,18.767 C198.680671,18.4609985 199.066,17.741339 199.066,16.608 Z" id="BOARD"></path>
                    </g>
                </g>
            </g>
        </g>
    </g>
</svg>